HIERARCHY
ROOT Hips
{
	OFFSET 0.00 0.00 0.00
	CHANNELS 6 Xposition Yposition Zposition Xrotation Yrotation Zrotation
	JOINT Spine
	{
		OFFSET 0.00000 5.09557 0.00000
		CHANNELS 3 Xrotation Yrotation Zrotation
		JOINT Head
		{
			OFFSET 0.00000 15.96733 0.00000
			CHANNELS 3 Xrotation Yrotation Zrotation
			End Site
			{
				OFFSET 0.00000 4.52755 0.00000
			}
		}
		JOINT LeftShoulder
		{
			OFFSET 0.00000 12.07196 0.00000
			CHANNELS 3 Xrotation Yrotation Zrotation
			JOINT LeftArm
			{
				OFFSET 7.25857 0.00000 0.00000
				CHANNELS 3 Xrotation Yrotation Zrotation
				JOINT LeftForeArm
				{
					OFFSET 10.69841 0.00000 0.00000
					CHANNELS 3 Zrotation Yrotation Xrotation
					JOINT LeftHand
					{
						OFFSET 7.95967 0.00000 0.00000
						CHANNELS 3 Xrotation Yrotation Zrotation
						JOINT LeftHandThumb1
						{
							OFFSET 0.00000 0.00000 0.00000
							CHANNELS 3 Xrotation Yrotation Zrotation
							End Site
							{
								OFFSET 0.00000 0.00000 3.93700
							}
						}
						End Site
						{
							OFFSET 3.93700 0.00000 0.00000
						}
					}
				}
			}
		}
		JOINT RightShoulder
		{
			OFFSET 0.00000 12.07196 0.00000
			CHANNELS 3 Xrotation Yrotation Zrotation
			JOINT RightArm
			{
				OFFSET -7.25857 0.00000 0.00000
				CHANNELS 3 Xrotation Yrotation Zrotation
				JOINT RightForeArm
				{
					OFFSET -10.69841 0.00000 0.00000
					CHANNELS 3 Zrotation Yrotation Xrotation
					JOINT RightHand
					{
						OFFSET -7.95967 0.00000 0.00000
						CHANNELS 3 Xrotation Yrotation Zrotation
						JOINT RightHandThumb1
						{
							OFFSET 0.00000 0.00000 0.00000
							CHANNELS 3 Xrotation Yrotation Zrotation
							End Site
							{
								OFFSET 0.00000 0.00000 3.93700
							}
						}
						End Site
						{
							OFFSET -3.93700 0.00000 0.00000
						}
					}
				}
			}
		}
	}
	JOINT LeftUpLeg
	{
		OFFSET 4.27803 0.00000 0.00000
		CHANNELS 3 Xrotation Yrotation Zrotation
		JOINT LeftLeg
		{
			OFFSET 0.00000 -17.05705 0.00000
			CHANNELS 3 Xrotation Yrotation Zrotation
			JOINT LeftFoot
			{
				OFFSET 0.00000 -17.44364 0.00000
				CHANNELS 3 Xrotation Yrotation Zrotation
				JOINT LeftToeBase
				{
					OFFSET 0.00000 -1.31641 4.91291
					CHANNELS 3 Xrotation Yrotation Zrotation
					End Site
					{
						OFFSET 0.00000 0.00000 2.95275
					}
				}
			}
		}
	}
	JOINT RightUpLeg
	{
		OFFSET -4.27803 0.00000 0.00000
		CHANNELS 3 Xrotation Yrotation Zrotation
		JOINT RightLeg
		{
			OFFSET 0.00000 -17.05705 0.00000
			CHANNELS 3 Xrotation Yrotation Zrotation
			JOINT RightFoot
			{
				OFFSET 0.00000 -17.44364 0.00000
				CHANNELS 3 Xrotation Yrotation Zrotation
				JOINT RightToeBase
				{
					OFFSET 0.00000 -1.31641 4.91291
					CHANNELS 3 Xrotation Yrotation Zrotation
					End Site
					{
						OFFSET 0.00000 0.00000 2.95275
					}
				}
			}
		}
	}
}
MOTION
Frames: 16
Frame Time: 0.008333
 5.3764 35.7728 -11.1127 5.8968 -1.1054 1.8151 -11.1064 -12.5485 -4.4652 -5.3972 17.4841 15.9872 -10.0977 28.4274 18.8207 -43.1978 -1.3474 -12.8237 0.0000 4.3059 22.8693 -0.0485 -0.8127 -3.4123 33.1476 26.2537 0.0000 -10.8380 -2.9003 -12.5568 -43.6674 -4.9530 17.6941 -0.0000 11.5051 49.7856 0.3468 -3.6435 5.4413 32.8623 -24.3270 -0.0000 -0.9789 11.5256 -1.1680 0.1488 -0.0000 0.0000 -20.0662 24.3716 -1.2135 25.1147 0.0000 0.0000 -0.4227 -14.3092 -1.6627 -2.7690 0.0000 0.0000 -20.2195 -26.0462 -4.4910 27.1308 0.0000 0.0000
 5.3759 35.7725 -11.1097 5.9001 -1.1017 1.8146 -11.1057 -12.5577 -4.4650 -5.4200 17.5009 15.9699 -10.0970 28.4219 18.8118 -43.2002 -1.3323 -12.8228 0.0000 4.2983 22.9003 -0.0499 -0.8256 -3.4618 33.1476 26.2537 0.0000 -10.8412 -2.8857 -12.5578 -43.6979 -4.9582 17.6747 -0.0000 11.5018 49.7911 0.3550 -3.7048 5.4768 32.8623 -24.3270 -0.0000 -0.9783 11.5398 -1.1665 0.1487 -0.0000 -0.0000 -20.0544 24.3542 -1.2117 25.0859 -0.0000 -0.0000 -0.4193 -14.3266 -1.6618 -2.7697 0.0000 0.0000 -20.2152 -26.0307 -4.4678 27.1289 0.0000 0.0000
 5.3755 35.7725 -11.1070 5.9043 -1.1040 1.8148 -11.1028 -12.5568 -4.4688 -5.4451 17.5061 15.9628 -10.0875 28.4239 18.8018 -43.2209 -1.3301 -12.8322 -0.0000 4.3060 22.9043 -0.0517 -0.8478 -3.4912 33.1476 26.2537 0.0000 -10.8512 -2.8837 -12.5535 -43.6880 -4.9365 17.6696 -0.0000 11.4908 49.7371 0.3582 -3.7414 5.4727 32.8623 -24.3270 0.0000 -0.9753 11.5385 -1.1665 0.1446 0.0000 0.0000 -20.0692 24.3601 -1.2247 25.1174 -0.0000 0.0000 -0.4206 -14.3337 -1.6610 -2.7681 0.0000 0.0000 -20.2239 -26.0244 -4.4610 27.1182 0.0000 -0.0000
 5.3756 35.7724 -11.1043 5.9142 -1.1067 1.8149 -11.1062 -12.5517 -4.4706 -5.4734 17.5321 15.9584 -10.0920 28.4177 18.7930 -43.2095 -1.3311 -12.8357 -0.0000 4.3087 22.9582 -0.0557 -0.8924 -3.5692 33.1476 26.2537 0.0000 -10.8609 -2.8760 -12.5589 -43.6976 -4.9457 17.6587 -0.0000 11.4866 49.7604 0.3565 -3.7296 5.4647 32.8623 -24.3270 0.0000 -0.9773 11.5518 -1.1674 0.1356 -0.0000 0.0000 -20.0690 24.3523 -1.2176 25.1433 0.0000 -0.0000 -0.4235 -14.3298 -1.6605 -2.7751 0.0000 0.0000 -20.2165 -26.0349 -4.4587 27.1099 -0.0000 0.0000
 5.3753 35.7726 -11.1008 5.9218 -1.1087 1.8197 -11.1127 -12.5520 -4.4806 -5.4952 17.5591 15.9558 -10.0840 28.4198 18.7813 -43.1939 -1.3375 -12.8431 0.0000 4.3172 22.9245 -0.0521 -0.8493 -3.5092 33.1476 26.2537 -0.0000 -10.8289 -2.8789 -12.5471 -43.7238 -4.9165 17.6516 0.0000 11.4681 49.7298 0.3596 -3.7707 5.4523 32.8623 -24.3270 -0.0000 -0.9718 11.5790 -1.1729 0.1292 0.0000 0.0000 -20.0510 24.3247 -1.2390 25.1118 -0.0000 -0.0000 -0.4215 -14.3298 -1.6632 -2.7851 0.0000 0.0000 -20.2107 -26.0272 -4.4509 27.0980 -0.0000 -0.0000
 5.3754 35.7726 -11.0980 5.9330 -1.1086 1.8211 -11.1196 -12.5381 -4.4854 -5.5126 17.5576 15.9509 -10.0938 28.3862 18.7835 -43.1454 -1.3256 -12.8536 0.0000 4.3176 22.8822 -0.0493 -0.8107 -3.4787 33.1476 26.2537 0.0000 -10.8237 -2.8894 -12.5401 -43.7449 -4.9054 17.6371 -0.0000 11.4569 49.7530 0.3608 -3.7910 5.4400 32.8623 -24.3270 0.0000 -0.9767 11.5742 -1.1745 0.1258 0.0000 -0.0000 -20.0499 24.3354 -1.2526 25.1065 0.0000 -0.0000 -0.4252 -14.3234 -1.6633 -2.7922 -0.0000 -0.0000 -20.2091 -26.0425 -4.4585 27.0932 0.0000 -0.0000
 5.3754 35.7723 -11.0947 5.9419 -1.1068 1.8236 -11.1233 -12.5415 -4.4863 -5.5353 17.5950 15.9284 -10.0645 28.3912 18.7515 -43.1084 -1.3407 -12.8596 0.0000 4.3164 22.8262 -0.0457 -0.7600 -3.4394 33.1476 26.2537 0.0000 -10.8431 -2.8748 -12.5420 -43.7402 -4.9040 17.6326 0.0000 11.4790 49.7183 0.3721 -3.8886 5.4697 32.8623 -24.3270 0.0000 -0.9774 11.5666 -1.1782 0.1205 -0.0000 -0.0000 -20.0417 24.3454 -1.2608 25.0551 -0.0000 0.0000 -0.4256 -14.3315 -1.6656 -2.8004 -0.0000 0.0000 -20.2173 -26.0355 -4.4584 27.1131 -0.0000 0.0000
 5.3751 35.7720 -11.0918 5.9545 -1.1105 1.8243 -11.1304 -12.5347 -4.4888 -5.5582 17.6103 15.9217 -10.0598 28.3866 18.7430 -43.0848 -1.3418 -12.8752 -0.0000 4.3151 22.8274 -0.0438 -0.7301 -3.4342 33.1476 26.2537 -0.0000 -10.8252 -2.8750 -12.5476 -43.7630 -4.9149 17.6294 -0.0000 11.4838 49.7196 0.3723 -3.8883 5.4742 32.8623 -24.3270 0.0000 -0.9858 11.5501 -1.1773 0.1239 -0.0000 -0.0000 -20.0733 24.3602 -1.2554 25.1195 -0.0000 0.0000 -0.4298 -14.3158 -1.6653 -2.8069 0.0000 0.0000 -20.2152 -26.0428 -4.4672 27.0730 0.0000 -0.0000
 5.3755 35.7713 -11.0882 5.9859 -1.1036 1.8363 -11.1676 -12.5263 -4.5082 -5.5734 17.6133 15.9218 -10.0424 28.3772 18.7436 -43.0965 -1.3302 -12.9013 -0.0000 4.3214 22.8666 -0.0448 -0.7417 -3.4564 33.1476 26.2537 0.0000 -10.8214 -2.8761 -12.5524 -43.8030 -4.9353 17.6124 -0.0000 11.4604 49.7619 0.3597 -3.7656 5.4605 32.8623 -24.3270 -0.0000 -1.0037 11.5470 -1.1905 0.1137 0.0000 0.0000 -20.0577 24.3612 -1.2685 25.1157 -0.0000 0.0000 -0.4498 -14.3275 -1.6759 -2.8206 0.0000 0.0000 -20.2275 -26.0346 -4.4645 27.1353 -0.0000 -0.0000
 5.3745 35.7710 -11.0847 5.9964 -1.1049 1.8363 -11.1734 -12.5219 -4.5118 -5.5963 17.6345 15.9163 -10.0373 28.3647 18.7343 -43.0750 -1.3213 -12.9069 -0.0000 4.3262 22.8759 -0.0464 -0.7567 -3.5096 33.1476 26.2537 0.0000 -10.8209 -2.8860 -12.5513 -43.7772 -4.9123 17.6200 -0.0000 11.4693 49.7167 0.3664 -3.8205 5.4827 32.8623 -24.3270 -0.0000 -1.0105 11.5484 -1.1893 0.1170 -0.0000 0.0000 -20.0568 24.3664 -1.2760 25.0580 0.0000 -0.0000 -0.4517 -14.3370 -1.6728 -2.8272 -0.0000 0.0000 -20.2252 -26.0245 -4.4670 27.0779 -0.0000 0.0000
 5.3743 35.7710 -11.0809 6.0114 -1.1018 1.8386 -11.1872 -12.5256 -4.5179 -5.6138 17.6648 15.9178 -10.0385 28.3694 18.7303 -43.0718 -1.3222 -12.9281 -0.0000 4.3382 22.8694 -0.0487 -0.7857 -3.5492 33.1476 26.2537 -0.0000 -10.8408 -2.8663 -12.5484 -43.7529 -4.9214 17.6040 -0.0000 11.4788 49.7051 0.3636 -3.7783 5.5015 32.8623 -24.3270 0.0000 -1.0161 11.5391 -1.1910 0.1111 -0.0000 -0.0000 -20.0666 24.3732 -1.2729 25.0749 -0.0000 0.0000 -0.4540 -14.3401 -1.6740 -2.8395 -0.0000 -0.0000 -20.2248 -26.0256 -4.4532 27.1242 -0.0000 -0.0000
 5.3744 35.7704 -11.0775 6.0125 -1.1069 1.8390 -11.1883 -12.5262 -4.5191 -5.6124 17.7027 15.9090 -10.0165 28.3709 18.7184 -43.0969 -1.3050 -12.9435 0.0000 4.3419 22.8902 -0.0507 -0.8185 -3.5435 33.1476 26.2537 -0.0000 -10.8317 -2.8424 -12.5433 -43.7311 -4.9211 17.5891 0.0000 11.4937 49.6307 0.3665 -3.8032 5.5087 32.8623 -24.3270 -0.0000 -1.0093 11.5396 -1.1933 0.1074 0.0000 0.0000 -20.0551 24.3750 -1.2601 25.0380 0.0000 -0.0000 -0.4460 -14.3293 -1.6747 -2.8477 0.0000 -0.0000 -20.2314 -26.0270 -4.4590 27.1145 0.0000 -0.0000
 5.3740 35.7700 -11.0733 6.0188 -1.1054 1.8392 -11.1928 -12.5216 -4.5226 -5.6194 17.7146 15.9062 -10.0161 28.3579 18.7061 -43.0710 -1.3113 -12.9451 0.0000 4.3540 22.8649 -0.0513 -0.8204 -3.5772 33.1476 26.2537 -0.0000 -10.8272 -2.8435 -12.5497 -43.7355 -4.9288 17.5942 0.0000 11.4948 49.6250 0.3700 -3.8340 5.5162 32.8623 -24.3270 0.0000 -1.0043 11.5502 -1.1932 0.0971 -0.0000 0.0000 -20.0627 24.3668 -1.2620 25.0662 -0.0000 0.0000 -0.4398 -14.3224 -1.6721 -2.8569 0.0000 -0.0000 -20.2329 -26.0323 -4.4806 27.0951 0.0000 -0.0000
 5.3740 35.7694 -11.0692 6.0207 -1.1058 1.8396 -11.1928 -12.5279 -4.5255 -5.6268 17.7545 15.9040 -10.0148 28.3620 18.6974 -43.1070 -1.3000 -12.9574 0.0000 4.3655 22.8716 -0.0514 -0.8200 -3.5886 33.1476 26.2537 0.0000 -10.8366 -2.8270 -12.5496 -43.7205 -4.9302 17.5931 -0.0000 11.4915 49.6040 0.3701 -3.8366 5.5136 32.8623 -24.3270 -0.0000 -0.9953 11.5428 -1.1944 0.0916 0.0000 0.0000 -20.0810 24.3666 -1.2379 25.1181 -0.0000 0.0000 -0.4270 -14.3241 -1.6712 -2.8728 0.0000 0.0000 -20.2290 -26.0307 -4.4800 27.1055 -0.0000 0.0000
 5.3738 35.7689 -11.0644 6.0253 -1.1074 1.8390 -11.1996 -12.5257 -4.5277 -5.6291 17.7829 15.9063 -10.0107 28.3585 18.6923 -43.1094 -1.2860 -12.9758 0.0000 4.3640 22.8712 -0.0531 -0.8553 -3.5551 33.1476 26.2537 -0.0000 -10.8427 -2.8169 -12.5460 -43.7142 -4.9288 17.5851 -0.0000 11.4759 49.6162 0.3660 -3.8120 5.4882 32.8623 -24.3270 0.0000 -0.9872 11.5278 -1.1947 0.0825 -0.0000 0.0000 -20.0882 24.3926 -1.2443 25.1013 0.0000 -0.0000 -0.4153 -14.3207 -1.6683 -2.8867 0.0000 0.0000 -20.2315 -26.0396 -4.4631 27.1233 -0.0000 0.0000
 5.3733 35.7683 -11.0597 6.0303 -1.1086 1.8374 -11.2073 -12.5276 -4.5287 -5.6193 17.8025 15.8991 -10.0013 28.3535 18.6773 -43.1366 -1.2773 -12.9800 -0.0000 4.3745 22.8996 -0.0534 -0.8522 -3.5833 33.1476 26.2537 0.0000 -10.8733 -2.8047 -12.5465 -43.6768 -4.9213 17.5892 -0.0000 11.4734 49.6048 0.3706 -3.8523 5.4989 32.8623 -24.3270 -0.0000 -0.9783 11.5254 -1.1928 0.0711 -0.0000 0.0000 -20.0879 24.3877 -1.2499 25.0940 0.0000 0.0000 -0.4035 -14.3198 -1.6639 -2.9038 -0.0000 0.0000 -20.2237 -26.0345 -4.4746 27.0930 -0.0000 0.0000
